# xmcd
#
# Track frame offsets: 
#        150
#        18967
#        38825
#        55142
#        73985
#        94375
#        110647
#        129432
#        151202
#        170870
#
# Disc length: 2515 seconds
#
# Revision: 1
# Processed by: cddbd v1.5.2PL0 Copyright (c) Steve Scherf et al.
# Submitted via: ExactAudioCopyFreeDBPlugin 1.0
#
DISCID=8a09d10a
DTITLE=江蕙 - 遠走高飛
DYEAR=2013
DGENRE=Folk
TTITLE0=遠走高飛
TTITLE1=你甘會想阮
TTITLE2=暗光鳥
TTITLE3=歹逗陣
TTITLE4=囝仔
TTITLE5=千里岸
TTITLE6=你講的話
TTITLE7=下午的一齣戲
TTITLE8=溫溫的
TTITLE9=心內字
EXTD=
EXTT0=
EXTT1=
EXTT2=
EXTT3=
EXTT4=
EXTT5=
EXTT6=
EXTT7=
EXTT8=
EXTT9=
PLAYORDER=
